<svg width="226" height="86" viewBox="0 0 226 86" fill="none" xmlns="http://www.w3.org/2000/svg">
<path d="M46.08 16.56C46.08 16.96 45.92 17.32 45.6 17.64C45.36 17.88 45.04 18 44.64 18H20.52C20.12 18 19.92 18.2 19.92 18.6V33.72C19.92 34.12 20.12 34.32 20.52 34.32H33.72C34.12 34.32 34.44 34.48 34.68 34.8C35 35.04 35.16 35.36 35.16 35.76V50.04C35.16 50.44 35 50.8 34.68 51.12C34.44 51.36 34.12 51.48 33.72 51.48H20.52C20.12 51.48 19.92 51.68 19.92 52.08V83.52C19.92 83.92 19.76 84.28 19.44 84.6C19.2 84.84 18.88 84.96 18.48 84.96H1.44C1.04 84.96 0.680003 84.84 0.360003 84.6C0.120003 84.28 2.86102e-06 83.92 2.86102e-06 83.52V2.39996C2.86102e-06 1.99996 0.120003 1.67996 0.360003 1.43996C0.680003 1.11996 1.04 0.959955 1.44 0.959955H44.64C45.04 0.959955 45.36 1.11996 45.6 1.43996C45.92 1.67996 46.08 1.99996 46.08 2.39996V16.56ZM75.6909 85.92C67.9309 85.92 61.7309 83.68 57.0909 79.2C52.5309 74.72 50.2509 68.68 50.2509 61.08V24.84C50.2509 17.32 52.5309 11.32 57.0909 6.83996C61.7309 2.27996 67.9309 -4.00543e-05 75.6909 -4.00543e-05C83.3709 -4.00543e-05 89.5309 2.27996 94.1709 6.83996C98.8909 11.32 101.251 17.32 101.251 24.84V61.08C101.251 68.68 98.8909 74.72 94.1709 79.2C89.5309 83.68 83.3709 85.92 75.6909 85.92ZM75.6909 68.88C77.4509 68.88 78.8109 68.28 79.7709 67.08C80.8109 65.8 81.3309 64.08 81.3309 61.92V24C81.3309 21.84 80.8109 20.16 79.7709 18.96C78.8109 17.68 77.4509 17.04 75.6909 17.04C73.9309 17.04 72.5709 17.68 71.6109 18.96C70.6509 20.16 70.1709 21.84 70.1709 24V61.92C70.1709 64.08 70.6509 65.8 71.6109 67.08C72.5709 68.28 73.9309 68.88 75.6909 68.88ZM141.393 84.96C140.513 84.96 139.953 84.56 139.713 83.76L131.553 51.96C131.473 51.64 131.273 51.48 130.953 51.48H129.153C128.753 51.48 128.553 51.68 128.553 52.08V83.52C128.553 83.92 128.393 84.28 128.073 84.6C127.833 84.84 127.513 84.96 127.113 84.96H110.073C109.673 84.96 109.313 84.84 108.993 84.6C108.753 84.28 108.633 83.92 108.633 83.52V2.39996C108.633 1.99996 108.753 1.67996 108.993 1.43996C109.313 1.11996 109.673 0.959955 110.073 0.959955H135.873C140.513 0.959955 144.633 2.07996 148.233 4.31995C151.833 6.47996 154.593 9.55996 156.513 13.56C158.513 17.48 159.513 21.96 159.513 27C159.513 31.48 158.673 35.52 156.993 39.12C155.393 42.64 153.113 45.48 150.153 47.64C149.993 47.72 149.873 47.84 149.793 48C149.713 48.08 149.713 48.2 149.793 48.36L160.113 83.28L160.233 83.76C160.233 84.56 159.793 84.96 158.913 84.96H141.393ZM129.153 18C128.753 18 128.553 18.2 128.553 18.6V35.64C128.553 36.04 128.753 36.24 129.153 36.24H132.513C134.673 36.24 136.393 35.44 137.673 33.84C138.953 32.24 139.593 30.04 139.593 27.24C139.593 24.28 138.953 22 137.673 20.4C136.393 18.8 134.673 18 132.513 18H129.153ZM205.526 1.91996C205.846 1.27996 206.446 0.959955 207.326 0.959955H224.006C224.406 0.959955 224.726 1.11996 224.966 1.43996C225.286 1.67996 225.446 1.99996 225.446 2.39996V83.52C225.446 83.92 225.286 84.28 224.966 84.6C224.726 84.84 224.406 84.96 224.006 84.96H206.966C206.566 84.96 206.206 84.84 205.886 84.6C205.646 84.28 205.526 83.92 205.526 83.52V32.04C205.526 31.72 205.446 31.56 205.286 31.56C205.126 31.48 204.966 31.56 204.806 31.8L196.406 46.44C196.086 47.08 195.846 47.4 195.686 47.4C195.526 47.4 195.246 47.08 194.846 46.44L186.446 31.8C186.286 31.56 186.126 31.44 185.966 31.44C185.806 31.44 185.726 31.6 185.726 31.92V83.52C185.726 83.92 185.566 84.28 185.246 84.6C185.006 84.84 184.686 84.96 184.286 84.96H167.246C166.846 84.96 166.486 84.84 166.166 84.6C165.926 84.28 165.806 83.92 165.806 83.52V2.39996C165.806 1.99996 165.926 1.67996 166.166 1.43996C166.486 1.11996 166.846 0.959955 167.246 0.959955H184.046C184.846 0.959955 185.446 1.27996 185.846 1.91996L195.446 19.32C195.686 19.64 195.926 19.64 196.166 19.32L205.526 1.91996Z" fill="#20231F"/>
</svg>
